<mxfile host="app.diagrams.net" agent="Mozilla/5.0 (Windows NT 10.0; Win64; x64) AppleWebKit/537.36 (KHTML, like Gecko) Chrome/134.0.0.0 Safari/537.36" version="26.2.9">
  <diagram name="페이지-1" id="tKnUmm5pRHMUSP6x20L0">
    <mxGraphModel dx="1428" dy="751" grid="1" gridSize="10" guides="1" tooltips="1" connect="1" arrows="1" fold="1" page="1" pageScale="1" pageWidth="827" pageHeight="1169" math="0" shadow="0">
      <root>
        <mxCell id="0" />
        <mxCell id="1" parent="0" />
        <mxCell id="cDL8DVzq9S13-SmpeFBT-87" style="edgeStyle=orthogonalEdgeStyle;rounded=0;orthogonalLoop=1;jettySize=auto;html=1;exitX=0;exitY=0.5;exitDx=0;exitDy=0;" edge="1" parent="1" source="cDL8DVzq9S13-SmpeFBT-84" target="cDL8DVzq9S13-SmpeFBT-1">
          <mxGeometry relative="1" as="geometry">
            <Array as="points">
              <mxPoint x="200" y="420" />
              <mxPoint x="200" y="300" />
            </Array>
          </mxGeometry>
        </mxCell>
        <mxCell id="cDL8DVzq9S13-SmpeFBT-57" value="" style="group" vertex="1" connectable="0" parent="1">
          <mxGeometry x="510" y="270" width="100" height="180" as="geometry" />
        </mxCell>
        <mxCell id="cDL8DVzq9S13-SmpeFBT-54" value="" style="html=1;outlineConnect=0;whiteSpace=wrap;fillColor=#EEFFFF;shape=mxgraph.archimate.application;appType=function" vertex="1" parent="cDL8DVzq9S13-SmpeFBT-57">
          <mxGeometry width="100" height="180" as="geometry" />
        </mxCell>
        <mxCell id="cDL8DVzq9S13-SmpeFBT-53" value="" style="group" vertex="1" connectable="0" parent="cDL8DVzq9S13-SmpeFBT-57">
          <mxGeometry x="5" y="66" width="90" height="73" as="geometry" />
        </mxCell>
        <mxCell id="cDL8DVzq9S13-SmpeFBT-50" value="" style="aspect=fixed;sketch=0;html=1;dashed=0;whitespace=wrap;verticalLabelPosition=bottom;verticalAlign=top;fillColor=#2875E2;strokeColor=#ffffff;points=[[0.005,0.63,0],[0.1,0.2,0],[0.9,0.2,0],[0.5,0,0],[0.995,0.63,0],[0.72,0.99,0],[0.5,1,0],[0.28,0.99,0]];shape=mxgraph.kubernetes.icon2;prIcon=api" vertex="1" parent="cDL8DVzq9S13-SmpeFBT-53">
          <mxGeometry x="20" width="50" height="48" as="geometry" />
        </mxCell>
        <mxCell id="cDL8DVzq9S13-SmpeFBT-52" value="Function Calling" style="text;html=1;align=center;verticalAlign=middle;whiteSpace=wrap;rounded=0;" vertex="1" parent="cDL8DVzq9S13-SmpeFBT-53">
          <mxGeometry y="43" width="90" height="30" as="geometry" />
        </mxCell>
        <mxCell id="cDL8DVzq9S13-SmpeFBT-55" value="Application" style="text;html=1;align=center;verticalAlign=middle;whiteSpace=wrap;rounded=0;" vertex="1" parent="cDL8DVzq9S13-SmpeFBT-57">
          <mxGeometry x="5" width="60" height="30" as="geometry" />
        </mxCell>
        <mxCell id="cDL8DVzq9S13-SmpeFBT-4" value="tally-bot" style="text;html=1;align=center;verticalAlign=middle;whiteSpace=wrap;rounded=0;fontSize=35;" vertex="1" parent="1">
          <mxGeometry x="20" y="20" width="140" height="30" as="geometry" />
        </mxCell>
        <mxCell id="cDL8DVzq9S13-SmpeFBT-11" value="" style="group" vertex="1" connectable="0" parent="1">
          <mxGeometry x="140" y="279.5" width="60" height="69" as="geometry" />
        </mxCell>
        <mxCell id="cDL8DVzq9S13-SmpeFBT-1" value="" style="sketch=0;outlineConnect=0;fontColor=#232F3E;gradientColor=none;fillColor=#232F3D;strokeColor=none;dashed=0;verticalLabelPosition=bottom;verticalAlign=top;align=center;html=1;fontSize=12;fontStyle=0;aspect=fixed;pointerEvents=1;shape=mxgraph.aws4.users;" vertex="1" parent="cDL8DVzq9S13-SmpeFBT-11">
          <mxGeometry x="10" width="40" height="40" as="geometry" />
        </mxCell>
        <mxCell id="cDL8DVzq9S13-SmpeFBT-2" value="Users" style="text;html=1;align=center;verticalAlign=middle;whiteSpace=wrap;rounded=0;" vertex="1" parent="cDL8DVzq9S13-SmpeFBT-11">
          <mxGeometry y="39" width="60" height="30" as="geometry" />
        </mxCell>
        <mxCell id="cDL8DVzq9S13-SmpeFBT-29" value="" style="group" vertex="1" connectable="0" parent="1">
          <mxGeometry x="420" y="340" width="60" height="69" as="geometry" />
        </mxCell>
        <mxCell id="cDL8DVzq9S13-SmpeFBT-26" value="" style="sketch=0;points=[[0,0,0],[0.25,0,0],[0.5,0,0],[0.75,0,0],[1,0,0],[0,1,0],[0.25,1,0],[0.5,1,0],[0.75,1,0],[1,1,0],[0,0.25,0],[0,0.5,0],[0,0.75,0],[1,0.25,0],[1,0.5,0],[1,0.75,0]];outlineConnect=0;fontColor=#232F3E;fillColor=#01A88D;strokeColor=#ffffff;dashed=0;verticalLabelPosition=bottom;verticalAlign=top;align=center;html=1;fontSize=12;fontStyle=0;aspect=fixed;shape=mxgraph.aws4.resourceIcon;resIcon=mxgraph.aws4.bedrock;" vertex="1" parent="cDL8DVzq9S13-SmpeFBT-29">
          <mxGeometry x="10" width="40" height="40" as="geometry" />
        </mxCell>
        <mxCell id="cDL8DVzq9S13-SmpeFBT-28" value="LLM" style="text;html=1;align=center;verticalAlign=middle;whiteSpace=wrap;rounded=0;" vertex="1" parent="cDL8DVzq9S13-SmpeFBT-29">
          <mxGeometry y="39" width="60" height="30" as="geometry" />
        </mxCell>
        <mxCell id="cDL8DVzq9S13-SmpeFBT-39" style="edgeStyle=orthogonalEdgeStyle;rounded=0;orthogonalLoop=1;jettySize=auto;html=1;entryX=0;entryY=0.5;entryDx=0;entryDy=0;" edge="1" parent="1" source="cDL8DVzq9S13-SmpeFBT-9" target="cDL8DVzq9S13-SmpeFBT-30">
          <mxGeometry relative="1" as="geometry" />
        </mxCell>
        <mxCell id="cDL8DVzq9S13-SmpeFBT-38" style="edgeStyle=orthogonalEdgeStyle;rounded=0;orthogonalLoop=1;jettySize=auto;html=1;" edge="1" parent="1" source="cDL8DVzq9S13-SmpeFBT-1" target="cDL8DVzq9S13-SmpeFBT-9">
          <mxGeometry relative="1" as="geometry" />
        </mxCell>
        <mxCell id="cDL8DVzq9S13-SmpeFBT-40" style="edgeStyle=orthogonalEdgeStyle;rounded=0;orthogonalLoop=1;jettySize=auto;html=1;entryX=0;entryY=0.5;entryDx=0;entryDy=0;startArrow=none;startFill=0;" edge="1" parent="1" source="cDL8DVzq9S13-SmpeFBT-1" target="cDL8DVzq9S13-SmpeFBT-10">
          <mxGeometry relative="1" as="geometry" />
        </mxCell>
        <mxCell id="cDL8DVzq9S13-SmpeFBT-41" style="edgeStyle=orthogonalEdgeStyle;rounded=0;orthogonalLoop=1;jettySize=auto;html=1;entryX=0;entryY=0.5;entryDx=0;entryDy=0;entryPerimeter=0;" edge="1" parent="1" source="cDL8DVzq9S13-SmpeFBT-10" target="cDL8DVzq9S13-SmpeFBT-26">
          <mxGeometry relative="1" as="geometry" />
        </mxCell>
        <mxCell id="cDL8DVzq9S13-SmpeFBT-34" value="" style="group" vertex="1" connectable="0" parent="1">
          <mxGeometry x="300" y="239.5" width="95" height="70" as="geometry" />
        </mxCell>
        <mxCell id="cDL8DVzq9S13-SmpeFBT-30" value="" style="editableCssRules=.*;html=1;shape=image;verticalLabelPosition=bottom;labelBackgroundColor=#ffffff;verticalAlign=top;aspect=fixed;imageAspect=0;image=data:image/svg+xml,PHN2ZyB4bWxucz0iaHR0cDovL3d3dy53My5vcmcvMjAwMC9zdmciIHhtbG5zOnY9Imh0dHBzOi8vdmVjdGEuaW8vbmFubyIgd2lkdGg9IjIwIiBoZWlnaHQ9IjE2IiB2aWV3Qm94PSIwIDAgMjAgMTYiPiYjeGE7CTxzdHlsZSB0eXBlPSJ0ZXh0L2NzcyI+JiN4YTsJLnN0MHtmaWxsOiM2NjlkZjY7fSYjeGE7CS5zdDF7ZmlsbDojYWVjYmZhO30mI3hhOwkuc3Qye2ZpbGw6IzQyODVmNDt9JiN4YTsJPC9zdHlsZT4mI3hhOwk8ZyBjbGFzcz0ic3QwIj4mI3hhOwkJPHBhdGggZD0iTTEwIDE2TDAgOGg0bDYgNC45OXoiLz4mI3hhOwkJPHBhdGggZD0iTTIwIDhsLTEwIDh2LTMuMDFMMTYgOHoiLz4mI3hhOwk8L2c+JiN4YTsJPGcgY2xhc3M9InN0MSI+JiN4YTsJCTxwYXRoIGQ9Ik0xMCAzLjAxTDQgOEgwbDEwLTh6Ii8+JiN4YTsJCTxwYXRoIGQ9Ik0yMCA4TDEwIDB2My4wMUwxNiA4eiIvPiYjeGE7CTwvZz4mI3hhOwk8Y2lyY2xlIGNsYXNzPSJzdDIiIGN4PSIxMCIgY3k9IjgiIHI9IjIiLz4mI3hhOzwvc3ZnPg==;" vertex="1" parent="cDL8DVzq9S13-SmpeFBT-34">
          <mxGeometry x="22.5" width="50" height="40" as="geometry" />
        </mxCell>
        <mxCell id="cDL8DVzq9S13-SmpeFBT-33" value="Cloud Vision OCR" style="text;html=1;align=center;verticalAlign=middle;whiteSpace=wrap;rounded=0;" vertex="1" parent="cDL8DVzq9S13-SmpeFBT-34">
          <mxGeometry y="40" width="95" height="30" as="geometry" />
        </mxCell>
        <mxCell id="cDL8DVzq9S13-SmpeFBT-45" style="edgeStyle=orthogonalEdgeStyle;rounded=0;orthogonalLoop=1;jettySize=auto;html=1;entryX=0.5;entryY=0;entryDx=0;entryDy=0;entryPerimeter=0;" edge="1" parent="1" source="cDL8DVzq9S13-SmpeFBT-30" target="cDL8DVzq9S13-SmpeFBT-26">
          <mxGeometry relative="1" as="geometry" />
        </mxCell>
        <mxCell id="cDL8DVzq9S13-SmpeFBT-47" value="" style="group" vertex="1" connectable="0" parent="1">
          <mxGeometry x="230" y="239.5" width="60" height="70" as="geometry" />
        </mxCell>
        <mxCell id="cDL8DVzq9S13-SmpeFBT-9" value="" style="sketch=0;outlineConnect=0;fontColor=#232F3E;gradientColor=none;fillColor=#ED7100;strokeColor=none;dashed=0;verticalLabelPosition=bottom;verticalAlign=top;align=center;html=1;fontSize=12;fontStyle=0;aspect=fixed;pointerEvents=1;shape=mxgraph.aws4.container_registry_image;" vertex="1" parent="cDL8DVzq9S13-SmpeFBT-47">
          <mxGeometry x="10" width="40" height="40" as="geometry" />
        </mxCell>
        <mxCell id="cDL8DVzq9S13-SmpeFBT-46" value="Images" style="text;html=1;align=center;verticalAlign=middle;whiteSpace=wrap;rounded=0;" vertex="1" parent="cDL8DVzq9S13-SmpeFBT-47">
          <mxGeometry y="40" width="60" height="30" as="geometry" />
        </mxCell>
        <mxCell id="cDL8DVzq9S13-SmpeFBT-49" value="" style="group" vertex="1" connectable="0" parent="1">
          <mxGeometry x="230" y="340" width="60" height="60" as="geometry" />
        </mxCell>
        <mxCell id="cDL8DVzq9S13-SmpeFBT-10" value="" style="shape=image;html=1;verticalAlign=top;verticalLabelPosition=bottom;labelBackgroundColor=#ffffff;imageAspect=0;aspect=fixed;image=https://cdn1.iconfinder.com/data/icons/ui-essential-17/32/UI_Essential_Outline_1_essential-app-ui-chat-comment-messages-talk-128.png" vertex="1" parent="cDL8DVzq9S13-SmpeFBT-49">
          <mxGeometry x="10" width="40" height="40" as="geometry" />
        </mxCell>
        <mxCell id="cDL8DVzq9S13-SmpeFBT-48" value="Text" style="text;html=1;align=center;verticalAlign=middle;whiteSpace=wrap;rounded=0;" vertex="1" parent="cDL8DVzq9S13-SmpeFBT-49">
          <mxGeometry y="30" width="60" height="30" as="geometry" />
        </mxCell>
        <mxCell id="cDL8DVzq9S13-SmpeFBT-51" style="edgeStyle=orthogonalEdgeStyle;rounded=0;orthogonalLoop=1;jettySize=auto;html=1;entryX=0.02;entryY=0.5;entryDx=0;entryDy=0;entryPerimeter=0;" edge="1" parent="1" source="cDL8DVzq9S13-SmpeFBT-26" target="cDL8DVzq9S13-SmpeFBT-50">
          <mxGeometry relative="1" as="geometry" />
        </mxCell>
        <mxCell id="cDL8DVzq9S13-SmpeFBT-77" style="edgeStyle=orthogonalEdgeStyle;rounded=0;orthogonalLoop=1;jettySize=auto;html=1;entryX=0.5;entryY=0;entryDx=0;entryDy=0;entryPerimeter=0;" edge="1" parent="1" source="cDL8DVzq9S13-SmpeFBT-1" target="cDL8DVzq9S13-SmpeFBT-70">
          <mxGeometry relative="1" as="geometry">
            <Array as="points">
              <mxPoint x="130" y="300" />
              <mxPoint x="130" y="450" />
              <mxPoint x="483" y="450" />
            </Array>
          </mxGeometry>
        </mxCell>
        <mxCell id="cDL8DVzq9S13-SmpeFBT-80" value="AWS Cloud" style="points=[[0,0],[0.25,0],[0.5,0],[0.75,0],[1,0],[1,0.25],[1,0.5],[1,0.75],[1,1],[0.75,1],[0.5,1],[0.25,1],[0,1],[0,0.75],[0,0.5],[0,0.25]];outlineConnect=0;gradientColor=none;html=1;whiteSpace=wrap;fontSize=12;fontStyle=0;container=1;pointerEvents=0;collapsible=0;recursiveResize=0;shape=mxgraph.aws4.group;grIcon=mxgraph.aws4.group_aws_cloud_alt;strokeColor=#232F3E;fillColor=none;verticalAlign=top;align=left;spacingLeft=30;fontColor=#232F3E;dashed=0;" vertex="1" parent="1">
          <mxGeometry x="300" y="200" width="350" height="520" as="geometry" />
        </mxCell>
        <mxCell id="cDL8DVzq9S13-SmpeFBT-73" value="" style="group" vertex="1" connectable="0" parent="1">
          <mxGeometry x="356.5" y="500" width="253.5" height="180" as="geometry" />
        </mxCell>
        <mxCell id="cDL8DVzq9S13-SmpeFBT-70" value="" style="html=1;outlineConnect=0;whiteSpace=wrap;fillColor=#E9FFE8;shape=mxgraph.archimate.application;appType=function;strokeColor=default;" vertex="1" parent="cDL8DVzq9S13-SmpeFBT-73">
          <mxGeometry width="253.5" height="180" as="geometry" />
        </mxCell>
        <mxCell id="cDL8DVzq9S13-SmpeFBT-62" value="" style="group" vertex="1" connectable="0" parent="cDL8DVzq9S13-SmpeFBT-73">
          <mxGeometry x="15" y="70" width="60" height="70" as="geometry" />
        </mxCell>
        <mxCell id="cDL8DVzq9S13-SmpeFBT-59" value="" style="html=1;verticalLabelPosition=bottom;align=center;labelBackgroundColor=#ffffff;verticalAlign=top;strokeWidth=2;strokeColor=#0080F0;shadow=0;dashed=0;shape=mxgraph.ios7.icons.data;" vertex="1" parent="cDL8DVzq9S13-SmpeFBT-62">
          <mxGeometry x="10" width="35" height="40" as="geometry" />
        </mxCell>
        <mxCell id="cDL8DVzq9S13-SmpeFBT-61" value="RDBMS" style="text;html=1;align=center;verticalAlign=middle;whiteSpace=wrap;rounded=0;" vertex="1" parent="cDL8DVzq9S13-SmpeFBT-62">
          <mxGeometry x="-2.5" y="40" width="60" height="30" as="geometry" />
        </mxCell>
        <mxCell id="cDL8DVzq9S13-SmpeFBT-66" value="" style="group" vertex="1" connectable="0" parent="cDL8DVzq9S13-SmpeFBT-73">
          <mxGeometry x="90" y="69" width="100" height="111" as="geometry" />
        </mxCell>
        <mxCell id="cDL8DVzq9S13-SmpeFBT-63" value="" style="shape=image;html=1;verticalAlign=top;verticalLabelPosition=bottom;labelBackgroundColor=#ffffff;imageAspect=0;aspect=fixed;image=https://cdn2.iconfinder.com/data/icons/boxicons-logos/24/bxl-spring-boot-128.png" vertex="1" parent="cDL8DVzq9S13-SmpeFBT-66">
          <mxGeometry x="16.5" width="42" height="42" as="geometry" />
        </mxCell>
        <mxCell id="cDL8DVzq9S13-SmpeFBT-65" value="Spring Boot" style="text;html=1;align=center;verticalAlign=middle;whiteSpace=wrap;rounded=0;" vertex="1" parent="cDL8DVzq9S13-SmpeFBT-66">
          <mxGeometry y="37" width="75" height="30" as="geometry" />
        </mxCell>
        <mxCell id="cDL8DVzq9S13-SmpeFBT-69" value="" style="group" vertex="1" connectable="0" parent="cDL8DVzq9S13-SmpeFBT-73">
          <mxGeometry x="185" y="65" width="60" height="67" as="geometry" />
        </mxCell>
        <mxCell id="cDL8DVzq9S13-SmpeFBT-58" value="" style="shape=image;html=1;verticalAlign=top;verticalLabelPosition=bottom;labelBackgroundColor=#ffffff;imageAspect=0;aspect=fixed;image=https://cdn1.iconfinder.com/data/icons/unicons-line-vol-5/24/react-128.png" vertex="1" parent="cDL8DVzq9S13-SmpeFBT-69">
          <mxGeometry x="5" width="50" height="50" as="geometry" />
        </mxCell>
        <mxCell id="cDL8DVzq9S13-SmpeFBT-68" value="React" style="text;html=1;align=center;verticalAlign=middle;whiteSpace=wrap;rounded=0;" vertex="1" parent="cDL8DVzq9S13-SmpeFBT-69">
          <mxGeometry y="39" width="60" height="30" as="geometry" />
        </mxCell>
        <mxCell id="cDL8DVzq9S13-SmpeFBT-71" value="Web" style="text;html=1;align=center;verticalAlign=middle;whiteSpace=wrap;rounded=0;" vertex="1" parent="cDL8DVzq9S13-SmpeFBT-73">
          <mxGeometry x="-6.5" width="60" height="30" as="geometry" />
        </mxCell>
        <mxCell id="cDL8DVzq9S13-SmpeFBT-64" style="edgeStyle=orthogonalEdgeStyle;rounded=0;orthogonalLoop=1;jettySize=auto;html=1;entryX=0;entryY=0.5;entryDx=0;entryDy=0;" edge="1" parent="cDL8DVzq9S13-SmpeFBT-73" source="cDL8DVzq9S13-SmpeFBT-59" target="cDL8DVzq9S13-SmpeFBT-63">
          <mxGeometry relative="1" as="geometry" />
        </mxCell>
        <mxCell id="cDL8DVzq9S13-SmpeFBT-67" style="edgeStyle=orthogonalEdgeStyle;rounded=0;orthogonalLoop=1;jettySize=auto;html=1;entryX=0;entryY=0.5;entryDx=0;entryDy=0;" edge="1" parent="cDL8DVzq9S13-SmpeFBT-73" source="cDL8DVzq9S13-SmpeFBT-63" target="cDL8DVzq9S13-SmpeFBT-58">
          <mxGeometry relative="1" as="geometry" />
        </mxCell>
        <mxCell id="cDL8DVzq9S13-SmpeFBT-76" style="edgeStyle=orthogonalEdgeStyle;rounded=0;orthogonalLoop=1;jettySize=auto;html=1;entryX=-0.014;entryY=0.5;entryDx=0;entryDy=0;entryPerimeter=0;" edge="1" parent="1" target="cDL8DVzq9S13-SmpeFBT-59">
          <mxGeometry relative="1" as="geometry">
            <mxPoint x="560" y="450" as="sourcePoint" />
            <Array as="points">
              <mxPoint x="560" y="480" />
              <mxPoint x="210" y="480" />
              <mxPoint x="210" y="590" />
            </Array>
          </mxGeometry>
        </mxCell>
        <mxCell id="cDL8DVzq9S13-SmpeFBT-84" value="" style="shape=image;html=1;verticalAlign=top;verticalLabelPosition=bottom;labelBackgroundColor=#ffffff;imageAspect=0;aspect=fixed;image=https://cdn4.iconfinder.com/data/icons/success-filloutline/64/save-money-coin-piggy_bank-deposit-128.png" vertex="1" parent="1">
          <mxGeometry x="240" y="400" width="40" height="40" as="geometry" />
        </mxCell>
        <mxCell id="cDL8DVzq9S13-SmpeFBT-86" style="edgeStyle=orthogonalEdgeStyle;rounded=0;orthogonalLoop=1;jettySize=auto;html=1;exitX=0;exitY=0.75;exitDx=0;exitDy=0;exitPerimeter=0;entryX=1;entryY=0.5;entryDx=0;entryDy=0;" edge="1" parent="1" source="cDL8DVzq9S13-SmpeFBT-54" target="cDL8DVzq9S13-SmpeFBT-84">
          <mxGeometry relative="1" as="geometry" />
        </mxCell>
      </root>
    </mxGraphModel>
  </diagram>
</mxfile>
